<?xml version="1.0" standalone="no"?>
<!DOCTYPE svg PUBLIC "-//W3C//DTD SVG 20010904//EN"
 "http://www.w3.org/TR/2001/REC-SVG-20010904/DTD/svg10.dtd">
<svg version="1.0" xmlns="http://www.w3.org/2000/svg"
 width="1426.000000pt" height="1426.000000pt" viewBox="0 0 1426.000000 1426.000000"
 preserveAspectRatio="xMidYMid meet">
<metadata>
Created by potrace 1.11, written by Peter Selinger 2001-2013
</metadata>
<g transform="translate(0.000000,1426.000000) scale(0.100000,-0.100000)"
fill="#000000" stroke="none">
<path d="M6837 14254 c-1 -1 -60 -5 -132 -8 -71 -4 -143 -9 -160 -11 -16 -3
-61 -7 -100 -10 -84 -5 -88 -6 -415 -51 -19 -3 -73 -12 -120 -20 -47 -8 -98
-17 -115 -20 -16 -3 -79 -16 -140 -29 -128 -27 -172 -36 -182 -37 -5 0 -18 -4
-31 -9 -13 -5 -36 -11 -51 -14 -58 -10 -382 -106 -526 -155 -82 -29 -168 -58
-190 -65 -210 -68 -711 -297 -992 -453 -1101 -613 -2025 -1504 -2665 -2572
-162 -270 -342 -620 -435 -845 -13 -33 -31 -74 -39 -92 -53 -116 -157 -405
-229 -638 -45 -146 -137 -495 -149 -565 -3 -19 -10 -53 -16 -75 -5 -22 -9 -41
-9 -43 0 -1 -4 -26 -10 -55 -12 -61 -17 -90 -31 -177 -6 -36 -13 -76 -15 -90
-2 -14 -7 -47 -11 -75 -3 -27 -8 -58 -9 -67 -2 -9 -7 -48 -10 -85 -4 -37 -9
-76 -11 -86 -2 -10 -6 -55 -10 -100 -3 -45 -8 -93 -10 -107 -17 -138 -24 -731
-11 -960 9 -161 21 -297 32 -380 2 -14 6 -52 10 -85 7 -67 14 -127 20 -165 27
-174 40 -247 66 -379 17 -86 46 -219 66 -296 19 -77 36 -147 38 -155 27 -122
180 -584 248 -750 5 -14 11 -29 13 -35 7 -31 145 -339 215 -482 260 -528 551
-980 918 -1423 155 -187 244 -284 450 -490 200 -199 243 -239 366 -345 38 -33
76 -66 84 -73 124 -117 593 -458 836 -608 212 -131 329 -195 610 -334 194 -96
523 -243 570 -254 6 -2 21 -8 35 -13 14 -6 97 -36 185 -66 260 -91 400 -132
690 -204 58 -14 258 -58 311 -68 55 -10 141 -25 174 -30 19 -3 46 -7 60 -10
14 -2 45 -7 70 -10 25 -3 52 -8 60 -10 8 -2 40 -7 70 -10 30 -3 70 -7 88 -9
18 -3 67 -8 110 -11 42 -4 85 -9 95 -11 11 -2 71 -6 135 -10 65 -4 140 -8 167
-10 67 -4 550 -4 645 0 92 4 266 16 300 21 14 2 61 6 105 10 44 3 91 8 105 10
26 4 54 8 155 21 33 4 62 8 65 9 3 1 30 5 60 9 30 5 64 10 75 12 11 2 72 13
135 25 63 11 144 27 180 36 36 8 76 17 89 19 13 3 50 11 83 19 32 8 86 22 121
30 300 75 834 262 1113 390 244 113 571 282 696 361 21 13 40 24 42 24 6 0
240 149 351 223 195 131 511 375 705 545 458 403 882 888 1224 1402 64 96 120
180 124 185 4 6 49 82 100 170 51 88 97 167 102 175 20 34 198 391 234 470 46
102 162 379 182 435 116 320 222 670 269 885 2 8 13 59 25 114 24 108 25 116
40 196 6 30 12 66 15 80 3 13 7 40 10 60 3 20 7 45 9 55 2 11 7 45 11 75 4 30
9 62 10 71 6 31 20 144 30 239 3 36 8 83 10 105 3 22 7 87 11 145 3 58 8 125
10 150 5 62 5 566 0 670 -5 92 -14 228 -21 300 -13 142 -17 177 -20 200 -2 14
-7 48 -10 75 -9 78 -14 117 -21 158 -3 20 -7 47 -9 60 -9 74 -59 334 -75 397
-5 19 -12 51 -15 70 -3 19 -11 53 -16 75 -6 22 -13 47 -15 55 -2 8 -10 42 -19
75 -8 33 -17 67 -19 75 -114 447 -367 1080 -603 1509 -35 63 -63 116 -63 117
0 2 -41 72 -92 156 -163 273 -359 556 -557 803 -53 66 -98 122 -101 125 -3 3
-50 57 -105 120 -109 127 -483 504 -614 621 -536 475 -1176 893 -1791 1168
-52 24 -115 52 -139 63 -189 86 -607 233 -866 306 -258 73 -532 135 -740 168
-16 2 -41 6 -55 9 -48 9 -95 16 -130 21 -70 8 -135 16 -152 19 -9 2 -45 6 -80
10 -35 3 -79 8 -98 10 -19 2 -71 7 -115 10 -44 3 -107 8 -140 11 -57 5 -722
13 -728 8z m693 -608 c19 -2 82 -7 139 -11 57 -4 113 -8 124 -11 11 -2 47 -6
81 -9 33 -3 72 -7 86 -9 14 -2 61 -9 105 -15 66 -9 207 -33 336 -57 22 -4 299
-66 349 -79 8 -2 74 -20 145 -40 666 -188 1295 -479 1864 -862 124 -84 300
-210 356 -255 6 -5 53 -43 105 -84 86 -70 152 -126 280 -239 65 -57 405 -398
476 -476 101 -112 117 -131 220 -259 227 -283 443 -596 587 -850 269 -477 461
-924 602 -1405 38 -131 99 -360 111 -420 2 -11 8 -42 14 -70 5 -27 12 -61 15
-75 28 -135 30 -150 41 -220 4 -30 8 -57 9 -60 1 -3 5 -32 9 -65 4 -32 9 -66
11 -75 1 -8 6 -42 10 -75 3 -33 8 -73 10 -90 11 -91 24 -253 30 -380 6 -96 6
-540 1 -615 -2 -25 -7 -103 -11 -175 -5 -71 -9 -132 -10 -135 -1 -3 -5 -45
-10 -95 -5 -49 -9 -92 -10 -95 -1 -3 -5 -36 -10 -75 -5 -38 -9 -72 -10 -75 -1
-3 -5 -30 -9 -60 -5 -30 -10 -64 -12 -75 -4 -19 -19 -106 -28 -157 -2 -13 -7
-34 -10 -48 -3 -14 -8 -36 -10 -50 -5 -26 -26 -121 -52 -230 -65 -270 -226
-758 -319 -965 -7 -16 -32 -72 -55 -124 -87 -199 -214 -442 -375 -719 -122
-210 -383 -574 -583 -815 -206 -247 -492 -538 -732 -745 -61 -52 -223 -186
-264 -217 -22 -17 -60 -46 -85 -65 -348 -267 -878 -580 -1271 -750 -41 -18
-93 -40 -115 -50 -251 -112 -839 -301 -1109 -356 -11 -2 -63 -13 -116 -24
-111 -23 -384 -68 -454 -75 -25 -3 -59 -7 -74 -9 -25 -4 -62 -8 -187 -21 -379
-37 -906 -33 -1292 10 -24 3 -64 7 -90 10 -27 3 -61 8 -78 10 -16 3 -48 7 -70
10 -39 5 -70 10 -130 20 -16 3 -57 9 -90 15 -33 5 -69 12 -80 14 -126 26 -186
38 -215 46 -19 5 -46 11 -60 13 -42 8 -259 66 -365 98 -151 46 -426 140 -480
164 -16 7 -65 27 -107 44 -267 106 -690 317 -895 448 -29 18 -54 33 -57 33
-12 0 -378 249 -488 332 -103 77 -344 271 -358 287 -3 3 -39 35 -80 71 -97 83
-434 420 -532 530 -604 684 -1049 1453 -1326 2295 -43 130 -105 338 -117 392
-2 10 -15 64 -30 121 -30 123 -82 377 -91 447 -3 28 -8 52 -9 55 -6 10 -39
266 -50 383 -24 267 -29 359 -29 622 0 221 8 484 19 570 2 16 6 63 9 105 3 41
8 84 10 95 2 11 7 47 10 80 8 65 14 106 21 145 3 14 7 48 10 75 4 28 8 58 11
67 6 20 10 39 19 98 16 105 91 419 140 590 118 406 252 751 431 1111 72 143
113 220 215 397 392 682 981 1347 1659 1875 200 156 556 390 802 527 93 52
420 215 516 257 203 90 668 263 749 279 12 2 34 9 49 14 22 9 305 85 354 95
149 33 261 56 285 60 27 5 77 14 169 29 16 3 50 8 75 12 25 4 54 8 65 10 10 2
44 6 75 9 31 4 66 8 78 10 12 2 57 6 100 10 43 4 88 8 100 10 11 2 81 6 155
10 73 4 134 8 136 10 4 4 624 -4 662 -9z"/>
<path d="M5763 12401 c-71 -24 -115 -56 -152 -111 -59 -86 -67 -165 -35 -335
2 -10 6 -37 9 -60 3 -22 10 -62 15 -90 5 -27 16 -97 25 -155 20 -137 23 -153
46 -292 10 -64 21 -129 23 -145 2 -15 6 -44 10 -63 10 -61 45 -284 50 -320 5
-42 14 -95 26 -170 5 -30 12 -71 15 -90 3 -19 8 -46 10 -60 3 -14 7 -41 9 -60
7 -50 15 -106 28 -175 11 -63 12 -70 23 -150 3 -27 8 -57 10 -65 2 -8 7 -37
11 -65 3 -27 8 -59 10 -70 4 -17 10 -58 29 -175 2 -14 6 -43 10 -65 3 -23 8
-52 10 -65 3 -14 8 -43 10 -65 3 -22 12 -78 20 -125 13 -82 19 -116 30 -197 3
-21 10 -60 15 -88 5 -27 12 -72 16 -100 4 -27 9 -57 10 -65 2 -8 6 -33 9 -55
2 -22 7 -49 9 -60 2 -11 7 -45 12 -75 4 -30 8 -57 9 -60 1 -3 5 -30 9 -60 5
-30 10 -64 12 -75 3 -11 6 -33 9 -50 6 -48 41 -266 49 -315 4 -24 10 -60 22
-140 3 -19 14 -87 24 -150 26 -160 31 -190 36 -230 2 -19 6 -44 9 -56 2 -12 9
-52 15 -90 5 -38 12 -80 14 -94 3 -14 10 -61 16 -105 6 -44 14 -89 16 -101 l5
-21 -2224 0 -2224 0 -56 -26 c-135 -62 -207 -205 -171 -344 20 -80 52 -121
176 -229 62 -54 115 -101 118 -104 3 -3 39 -34 80 -69 41 -36 80 -69 85 -75 6
-6 42 -38 80 -71 39 -33 86 -74 105 -91 19 -17 94 -82 165 -144 72 -62 159
-139 195 -170 36 -32 180 -158 320 -280 140 -122 271 -236 290 -254 19 -17 69
-60 110 -96 41 -36 77 -67 80 -70 3 -3 39 -34 80 -70 41 -36 77 -67 80 -70 3
-3 52 -46 110 -95 57 -50 111 -97 120 -105 17 -16 66 -59 280 -244 74 -65 149
-130 165 -145 30 -26 148 -130 214 -187 18 -16 46 -40 61 -54 15 -14 40 -36
56 -50 48 -40 861 -751 1044 -911 53 -46 125 -109 160 -140 169 -147 502 -438
560 -489 36 -31 108 -94 160 -140 52 -45 124 -109 160 -140 189 -167 489 -427
535 -465 60 -49 106 -66 179 -70 170 -8 307 119 310 285 1 61 -8 151 -18 182
-4 12 -8 34 -22 138 -2 19 -11 73 -19 120 -14 85 -20 126 -30 197 -3 21 -8 47
-10 59 -3 12 -9 52 -15 90 -5 38 -12 80 -14 94 -2 14 -9 57 -15 95 -7 39 -20
124 -31 190 -11 66 -22 138 -25 160 -2 22 -7 54 -10 70 -9 46 -23 136 -29 178
-6 35 -13 83 -21 137 -2 14 -16 99 -31 190 -14 91 -27 174 -29 185 -4 30 -35
226 -40 255 -6 36 -34 210 -39 245 -2 17 -12 77 -21 135 -10 58 -19 114 -20
125 -14 99 -26 173 -30 185 -2 8 -6 35 -9 60 -4 25 -8 56 -11 70 -2 14 -7 41
-9 60 -7 50 -15 103 -31 200 -8 47 -17 103 -20 125 -4 22 -20 123 -36 225 -16
102 -32 199 -34 215 -6 46 -15 102 -30 195 -8 47 -17 103 -20 125 -4 22 -8 51
-11 65 -2 14 -7 48 -10 75 -4 28 -8 53 -11 58 -6 9 -55 9 772 8 1009 -2 2081
-2 3400 0 1204 2 1163 0 1240 52 89 60 130 139 130 252 0 123 6 115 -390 560
-34 39 -84 95 -110 125 -27 30 -51 57 -54 60 -4 3 -51 57 -106 120 -116 133
-102 117 -186 211 -37 41 -158 178 -269 304 -112 127 -233 264 -270 305 -37
41 -82 93 -101 115 -19 22 -51 58 -71 80 -20 22 -46 51 -58 65 -49 57 -121
139 -147 167 -15 17 -55 61 -88 99 -33 37 -80 91 -105 119 -25 28 -74 84 -110
125 -36 41 -87 99 -115 130 -27 31 -75 85 -106 120 -31 36 -67 77 -80 91 -13
14 -49 54 -79 89 -30 35 -60 68 -66 74 -5 6 -44 49 -85 96 -40 47 -81 92 -89
101 -8 8 -38 42 -66 75 -29 32 -62 70 -75 84 -13 15 -103 116 -199 225 -96
110 -182 207 -190 215 -8 9 -31 34 -50 56 -95 106 -188 212 -215 243 -16 19
-48 56 -71 81 -22 25 -54 60 -70 79 -16 19 -47 55 -70 80 -52 58 -357 403
-438 496 -33 38 -80 90 -102 115 -23 25 -110 124 -194 220 -216 247 -275 303
-337 324 -111 37 -232 10 -314 -70 -80 -78 -101 -178 -73 -338 7 -43 16 -97
19 -120 9 -61 15 -98 20 -126 5 -28 11 -65 20 -125 3 -23 7 -52 10 -65 3 -14
12 -70 20 -125 8 -55 18 -116 21 -135 3 -19 10 -62 15 -95 6 -33 13 -73 15
-90 3 -31 14 -95 20 -130 2 -10 6 -37 9 -60 3 -22 10 -65 15 -95 17 -97 19
-113 35 -220 9 -58 18 -117 20 -132 3 -16 7 -40 9 -55 11 -70 19 -119 21 -133
2 -8 8 -51 15 -95 7 -44 13 -87 15 -95 3 -17 14 -90 21 -135 2 -16 6 -41 9
-55 3 -14 7 -38 9 -55 6 -40 18 -116 21 -135 2 -13 10 -59 20 -130 11 -67 36
-228 40 -250 3 -14 8 -45 11 -70 3 -25 8 -54 10 -65 5 -25 55 -342 58 -370 2
-11 6 -38 10 -60 7 -41 22 -136 31 -190 2 -16 6 -43 9 -60 3 -16 7 -48 11 -70
3 -23 7 -52 10 -65 3 -13 7 -42 10 -65 3 -22 10 -65 15 -95 5 -30 12 -73 16
-95 3 -22 14 -96 25 -165 29 -184 30 -191 34 -212 3 -11 7 -46 11 -77 3 -31 8
-59 10 -62 2 -4 6 -27 9 -50 3 -24 13 -87 21 -139 9 -52 18 -113 20 -136 l4
-41 -614 0 -615 0 -10 51 c-8 42 -37 222 -67 421 -4 22 -8 49 -10 60 -2 10 -6
37 -9 60 -3 22 -8 47 -10 55 -2 8 -7 35 -10 60 -3 25 -8 58 -11 74 -4 15 -8
45 -10 65 -1 20 -5 45 -7 56 -3 11 -10 56 -17 100 -7 44 -14 89 -16 100 -2 10
-6 37 -9 60 -3 22 -8 51 -10 65 -3 14 -7 39 -9 55 -3 17 -7 44 -10 60 -3 17
-12 75 -21 130 -8 55 -17 111 -19 125 -3 14 -12 75 -22 135 -9 61 -18 119 -20
130 -2 10 -6 37 -9 60 -3 22 -10 65 -15 95 -12 71 -17 100 -30 185 -17 109
-20 128 -25 155 -2 14 -7 43 -10 65 -6 40 -7 50 -25 155 -5 30 -11 72 -14 93
-4 20 -9 54 -12 75 -3 20 -7 51 -10 67 -2 17 -6 41 -9 55 -3 14 -7 41 -9 60
-6 50 -15 107 -26 165 -5 28 -12 68 -15 90 -3 22 -14 96 -25 165 -11 69 -23
143 -26 165 -4 22 -8 49 -10 60 -4 20 -12 73 -19 122 -5 41 -14 97 -30 193
-15 88 -25 150 -30 185 -2 11 -10 65 -19 120 -8 55 -18 118 -21 140 -3 22 -8
47 -10 55 -2 8 -7 35 -10 60 -3 25 -15 99 -25 165 -11 66 -22 138 -25 160 -32
213 -51 262 -127 329 -78 68 -188 91 -285 57z m2767 -1681 c167 -190 319 -361
336 -380 17 -19 55 -62 84 -95 29 -33 66 -75 83 -94 16 -19 84 -95 150 -170
66 -75 136 -154 156 -176 20 -22 68 -76 106 -120 39 -44 72 -82 75 -85 3 -3
39 -43 79 -90 41 -47 87 -98 102 -115 16 -16 69 -77 120 -135 174 -198 402
-455 504 -570 28 -31 79 -89 115 -130 36 -41 85 -97 111 -125 25 -27 94 -106
154 -175 60 -69 112 -127 115 -130 3 -3 34 -39 70 -80 36 -41 68 -77 71 -80 3
-3 113 -126 244 -275 131 -148 267 -303 304 -344 36 -41 71 -82 78 -91 11 -16
-78 -17 -1403 -17 -1288 0 -1414 2 -1415 16 0 9 -2 23 -4 31 -1 8 -6 35 -9 60
-4 25 -9 56 -11 70 -3 14 -7 39 -9 55 -3 17 -14 86 -25 155 -11 69 -23 141
-25 160 -3 19 -12 78 -20 130 -9 52 -18 113 -21 135 -3 22 -8 47 -10 55 -2 8
-7 35 -10 60 -3 25 -8 57 -11 72 -3 15 -7 39 -9 55 -3 26 -20 135 -30 193 -2
14 -7 43 -10 65 -2 22 -7 51 -10 65 -2 14 -6 41 -9 60 -2 19 -14 91 -25 160
-11 69 -23 143 -26 165 -4 22 -8 51 -11 65 -9 53 -31 190 -39 245 -17 120 -46
303 -50 315 -2 8 -6 35 -9 60 -3 25 -8 56 -11 70 -3 14 -8 43 -10 65 -3 22
-12 78 -20 125 -7 47 -17 103 -20 125 -3 22 -7 51 -10 65 -2 14 -6 43 -10 65
-3 22 -10 65 -15 95 -5 30 -12 73 -15 95 -3 22 -7 51 -10 65 -3 21 -28 171
-40 249 -2 13 -7 45 -11 70 -4 25 -8 55 -10 66 -2 11 -11 67 -20 125 -8 58
-18 121 -21 140 l-5 34 34 -40 c18 -22 170 -195 338 -384z m-2124 -4079 c6 -1
15 -27 19 -58 4 -32 9 -67 11 -78 2 -11 6 -40 9 -65 4 -25 8 -52 10 -60 2 -8
7 -35 10 -60 5 -39 15 -104 31 -190 2 -14 6 -45 10 -70 3 -25 7 -52 9 -60 3
-8 11 -60 19 -115 16 -107 26 -168 31 -194 1 -9 5 -34 9 -56 6 -43 44 -284 51
-325 2 -14 7 -43 10 -65 2 -22 7 -51 9 -65 6 -30 55 -340 62 -390 3 -19 9 -57
14 -85 5 -27 12 -68 15 -90 3 -23 7 -50 9 -60 2 -11 7 -42 10 -68 4 -27 9 -58
12 -70 2 -12 6 -39 9 -62 3 -22 10 -65 15 -95 5 -30 12 -75 16 -100 3 -25 7
-54 9 -65 2 -11 6 -38 10 -60 3 -22 8 -51 11 -65 3 -14 8 -41 10 -60 3 -19 9
-60 14 -90 5 -30 12 -73 15 -95 3 -23 7 -51 10 -64 2 -13 7 -42 9 -65 3 -22
10 -64 15 -93 6 -29 13 -74 17 -100 3 -26 8 -55 9 -65 2 -9 6 -38 10 -65 3
-26 11 -70 16 -98 19 -105 40 -247 37 -251 -2 -1 -35 25 -74 59 -39 34 -99 87
-135 118 -87 76 -479 418 -558 488 -92 80 -102 89 -141 122 -19 17 -62 54 -95
83 -33 29 -121 106 -195 171 -74 65 -164 143 -200 175 -36 32 -108 94 -160
140 -52 45 -111 96 -130 114 -19 17 -66 58 -105 91 -38 33 -72 62 -75 65 -3 3
-57 51 -120 105 -63 55 -117 102 -120 105 -3 3 -39 34 -80 70 -41 36 -80 70
-86 75 -12 11 -94 83 -234 205 -52 46 -124 109 -160 140 -36 31 -162 141 -280
245 -118 103 -244 213 -279 244 -35 31 -82 72 -104 91 -23 19 -81 71 -131 114
-50 43 -107 93 -126 110 -19 17 -69 60 -110 95 -41 36 -79 70 -85 75 -5 6 -41
38 -80 71 -38 33 -86 74 -105 91 -19 17 -92 81 -162 142 -70 61 -123 112 -117
114 7 2 3620 1 3655 -1z"/>
</g>
</svg>
